<svg width="175" height="59" viewBox="0 0 175 59" fill="none" xmlns="http://www.w3.org/2000/svg">
<rect x="0.764282" width="173.534" height="59" rx="24" fill="#DA722C"/>
<path d="M41.7463 33.768H37.0303L36.2743 36H33.0523L37.6243 23.364H41.1883L45.7603 36H42.5023L41.7463 33.768ZM40.9543 31.392L39.3883 26.766L37.8403 31.392H40.9543ZM50.2298 22.68V36H47.1518V22.68H50.2298ZM55.5384 22.68V36H52.4604V22.68H55.5384ZM61.0614 29.664C61.0614 28.416 61.3314 27.306 61.8714 26.334C62.4114 25.35 63.1614 24.588 64.1214 24.048C65.0934 23.496 66.1914 23.22 67.4154 23.22C68.9154 23.22 70.1994 23.616 71.2674 24.408C72.3354 25.2 73.0494 26.28 73.4094 27.648H70.0254C69.7734 27.12 69.4134 26.718 68.9454 26.442C68.4894 26.166 67.9674 26.028 67.3794 26.028C66.4314 26.028 65.6634 26.358 65.0754 27.018C64.4874 27.678 64.1934 28.56 64.1934 29.664C64.1934 30.768 64.4874 31.65 65.0754 32.31C65.6634 32.97 66.4314 33.3 67.3794 33.3C67.9674 33.3 68.4894 33.162 68.9454 32.886C69.4134 32.61 69.7734 32.208 70.0254 31.68H73.4094C73.0494 33.048 72.3354 34.128 71.2674 34.92C70.1994 35.7 68.9154 36.09 67.4154 36.09C66.1914 36.09 65.0934 35.82 64.1214 35.28C63.1614 34.728 62.4114 33.966 61.8714 32.994C61.3314 32.022 61.0614 30.912 61.0614 29.664ZM79.8663 36.144C78.8823 36.144 77.9943 35.934 77.2023 35.514C76.4223 35.094 75.8043 34.494 75.3483 33.714C74.9043 32.934 74.6823 32.022 74.6823 30.978C74.6823 29.946 74.9103 29.04 75.3663 28.26C75.8223 27.468 76.4463 26.862 77.2383 26.442C78.0303 26.022 78.9183 25.812 79.9023 25.812C80.8863 25.812 81.7743 26.022 82.5663 26.442C83.3583 26.862 83.9823 27.468 84.4383 28.26C84.8943 29.04 85.1223 29.946 85.1223 30.978C85.1223 32.01 84.8883 32.922 84.4203 33.714C83.9643 34.494 83.3343 35.094 82.5303 35.514C81.7383 35.934 80.8503 36.144 79.8663 36.144ZM79.8663 33.48C80.4543 33.48 80.9523 33.264 81.3603 32.832C81.7803 32.4 81.9903 31.782 81.9903 30.978C81.9903 30.174 81.7863 29.556 81.3783 29.124C80.9823 28.692 80.4903 28.476 79.9023 28.476C79.3023 28.476 78.8043 28.692 78.4083 29.124C78.0123 29.544 77.8143 30.162 77.8143 30.978C77.8143 31.782 78.0063 32.4 78.3903 32.832C78.7863 33.264 79.2783 33.48 79.8663 33.48ZM96.6733 25.956V36H93.5953V34.632C93.2833 35.076 92.8573 35.436 92.3173 35.712C91.7893 35.976 91.2013 36.108 90.5533 36.108C89.7853 36.108 89.1073 35.94 88.5193 35.604C87.9313 35.256 87.4753 34.758 87.1513 34.11C86.8273 33.462 86.6653 32.7 86.6653 31.824V25.956H89.7253V31.41C89.7253 32.082 89.8993 32.604 90.2473 32.976C90.5953 33.348 91.0633 33.534 91.6513 33.534C92.2513 33.534 92.7253 33.348 93.0733 32.976C93.4213 32.604 93.5953 32.082 93.5953 31.41V25.956H96.6733ZM101.962 27.63C102.322 27.078 102.772 26.646 103.312 26.334C103.852 26.01 104.452 25.848 105.112 25.848V29.106H104.266C103.498 29.106 102.922 29.274 102.538 29.61C102.154 29.934 101.962 30.51 101.962 31.338V36H98.8842V25.956H101.962V27.63ZM110.669 36.144C109.793 36.144 109.013 35.994 108.329 35.694C107.645 35.394 107.105 34.986 106.709 34.47C106.313 33.942 106.091 33.354 106.043 32.706H109.085C109.121 33.054 109.283 33.336 109.571 33.552C109.859 33.768 110.213 33.876 110.633 33.876C111.017 33.876 111.311 33.804 111.515 33.66C111.731 33.504 111.839 33.306 111.839 33.066C111.839 32.778 111.689 32.568 111.389 32.436C111.089 32.292 110.603 32.136 109.931 31.968C109.211 31.8 108.611 31.626 108.131 31.446C107.651 31.254 107.237 30.96 106.889 30.564C106.541 30.156 106.367 29.61 106.367 28.926C106.367 28.35 106.523 27.828 106.835 27.36C107.159 26.88 107.627 26.502 108.239 26.226C108.863 25.95 109.601 25.812 110.453 25.812C111.713 25.812 112.703 26.124 113.423 26.748C114.155 27.372 114.575 28.2 114.683 29.232H111.839C111.791 28.884 111.635 28.608 111.371 28.404C111.119 28.2 110.783 28.098 110.363 28.098C110.003 28.098 109.727 28.17 109.535 28.314C109.343 28.446 109.247 28.632 109.247 28.872C109.247 29.16 109.397 29.376 109.697 29.52C110.009 29.664 110.489 29.808 111.137 29.952C111.881 30.144 112.487 30.336 112.955 30.528C113.423 30.708 113.831 31.008 114.179 31.428C114.539 31.836 114.725 32.388 114.737 33.084C114.737 33.672 114.569 34.2 114.233 34.668C113.909 35.124 113.435 35.484 112.811 35.748C112.199 36.012 111.485 36.144 110.669 36.144ZM126.089 30.816C126.089 31.104 126.071 31.404 126.035 31.716H119.069C119.117 32.34 119.315 32.82 119.663 33.156C120.023 33.48 120.461 33.642 120.977 33.642C121.745 33.642 122.279 33.318 122.579 32.67H125.855C125.687 33.33 125.381 33.924 124.937 34.452C124.505 34.98 123.959 35.394 123.299 35.694C122.639 35.994 121.901 36.144 121.085 36.144C120.101 36.144 119.225 35.934 118.457 35.514C117.689 35.094 117.089 34.494 116.657 33.714C116.225 32.934 116.009 32.022 116.009 30.978C116.009 29.934 116.219 29.022 116.639 28.242C117.071 27.462 117.671 26.862 118.439 26.442C119.207 26.022 120.089 25.812 121.085 25.812C122.057 25.812 122.921 26.016 123.677 26.424C124.433 26.832 125.021 27.414 125.441 28.17C125.873 28.926 126.089 29.808 126.089 30.816ZM122.939 30.006C122.939 29.478 122.759 29.058 122.399 28.746C122.039 28.434 121.589 28.278 121.049 28.278C120.533 28.278 120.095 28.428 119.735 28.728C119.387 29.028 119.171 29.454 119.087 30.006H122.939ZM131.798 36.144C130.922 36.144 130.142 35.994 129.458 35.694C128.774 35.394 128.234 34.986 127.838 34.47C127.442 33.942 127.22 33.354 127.172 32.706H130.214C130.25 33.054 130.412 33.336 130.7 33.552C130.988 33.768 131.342 33.876 131.762 33.876C132.146 33.876 132.44 33.804 132.644 33.66C132.86 33.504 132.968 33.306 132.968 33.066C132.968 32.778 132.818 32.568 132.518 32.436C132.218 32.292 131.732 32.136 131.06 31.968C130.34 31.8 129.74 31.626 129.26 31.446C128.78 31.254 128.366 30.96 128.018 30.564C127.67 30.156 127.496 29.61 127.496 28.926C127.496 28.35 127.652 27.828 127.964 27.36C128.288 26.88 128.756 26.502 129.368 26.226C129.992 25.95 130.73 25.812 131.582 25.812C132.842 25.812 133.832 26.124 134.552 26.748C135.284 27.372 135.704 28.2 135.812 29.232H132.968C132.92 28.884 132.764 28.608 132.5 28.404C132.248 28.2 131.912 28.098 131.492 28.098C131.132 28.098 130.856 28.17 130.664 28.314C130.472 28.446 130.376 28.632 130.376 28.872C130.376 29.16 130.526 29.376 130.826 29.52C131.138 29.664 131.618 29.808 132.266 29.952C133.01 30.144 133.616 30.336 134.084 30.528C134.552 30.708 134.96 31.008 135.308 31.428C135.668 31.836 135.854 32.388 135.866 33.084C135.866 33.672 135.698 34.2 135.362 34.668C135.038 35.124 134.564 35.484 133.94 35.748C133.328 36.012 132.614 36.144 131.798 36.144Z" fill="white"/>
</svg>
