<svg width="190" height="59" viewBox="0 0 190 59" fill="none" xmlns="http://www.w3.org/2000/svg">
<rect x="0.953148" width="189.029" height="59" rx="24" fill="#DA722C"/>
<path d="M48.6257 22.8274C48.2882 22.49 47.8304 22.3004 47.3531 22.3004C46.8758 22.3004 46.4181 22.49 46.0805 22.8274L39.2531 29.6548V32.2H41.7983L48.6257 25.3726C48.9632 25.0351 49.1528 24.5773 49.1528 24.1C49.1528 23.6227 48.9632 23.1649 48.6257 22.8274Z" fill="white"/>
<path fill-rule="evenodd" clip-rule="evenodd" d="M34.7531 25.9C34.7531 25.4226 34.9428 24.9648 35.2804 24.6272C35.6179 24.2896 36.0758 24.1 36.5531 24.1H40.1531C40.3918 24.1 40.6208 24.1948 40.7895 24.3636C40.9583 24.5324 41.0531 24.7613 41.0531 25C41.0531 25.2387 40.9583 25.4676 40.7895 25.6364C40.6208 25.8052 40.3918 25.9 40.1531 25.9H36.5531V34.9H45.5531V31.3C45.5531 31.0613 45.648 30.8324 45.8168 30.6636C45.9855 30.4948 46.2145 30.4 46.4531 30.4C46.6918 30.4 46.9208 30.4948 47.0895 30.6636C47.2583 30.8324 47.3531 31.0613 47.3531 31.3V34.9C47.3531 35.3774 47.1635 35.8352 46.8259 36.1728C46.4884 36.5104 46.0305 36.7 45.5531 36.7H36.5531C36.0758 36.7 35.6179 36.5104 35.2804 36.1728C34.9428 35.8352 34.7531 35.3774 34.7531 34.9V25.9Z" fill="white"/>
<path d="M65.1471 25.83V28.386H69.2691V30.762H65.1471V33.534H69.8091V36H62.0691V23.364H69.8091V25.83H65.1471ZM77.9274 25.848C79.1034 25.848 80.0394 26.232 80.7354 27C81.4434 27.756 81.7974 28.8 81.7974 30.132V36H78.7374V30.546C78.7374 29.874 78.5634 29.352 78.2154 28.98C77.8674 28.608 77.3994 28.422 76.8114 28.422C76.2234 28.422 75.7554 28.608 75.4074 28.98C75.0594 29.352 74.8854 29.874 74.8854 30.546V36H71.8074V25.956H74.8854V27.288C75.1974 26.844 75.6174 26.496 76.1454 26.244C76.6734 25.98 77.2674 25.848 77.9274 25.848ZM87.0143 27.63C87.3743 27.078 87.8243 26.646 88.3643 26.334C88.9043 26.01 89.5043 25.848 90.1643 25.848V29.106H89.3183C88.5503 29.106 87.9743 29.274 87.5903 29.61C87.2063 29.934 87.0143 30.51 87.0143 31.338V36H83.9363V25.956H87.0143V27.63ZM96.2076 36.144C95.2236 36.144 94.3356 35.934 93.5436 35.514C92.7636 35.094 92.1456 34.494 91.6896 33.714C91.2456 32.934 91.0236 32.022 91.0236 30.978C91.0236 29.946 91.2516 29.04 91.7076 28.26C92.1636 27.468 92.7876 26.862 93.5796 26.442C94.3716 26.022 95.2596 25.812 96.2436 25.812C97.2276 25.812 98.1156 26.022 98.9076 26.442C99.6996 26.862 100.324 27.468 100.78 28.26C101.236 29.04 101.464 29.946 101.464 30.978C101.464 32.01 101.23 32.922 100.762 33.714C100.306 34.494 99.6756 35.094 98.8716 35.514C98.0796 35.934 97.1916 36.144 96.2076 36.144ZM96.2076 33.48C96.7956 33.48 97.2936 33.264 97.7016 32.832C98.1216 32.4 98.3316 31.782 98.3316 30.978C98.3316 30.174 98.1276 29.556 97.7196 29.124C97.3236 28.692 96.8316 28.476 96.2436 28.476C95.6436 28.476 95.1456 28.692 94.7496 29.124C94.3536 29.544 94.1556 30.162 94.1556 30.978C94.1556 31.782 94.3476 32.4 94.7316 32.832C95.1276 33.264 95.6196 33.48 96.2076 33.48ZM106.174 22.68V36H103.096V22.68H106.174ZM123.524 36H120.446L115.298 28.206V36H112.22V23.364H115.298L120.446 31.194V23.364H123.524V36ZM130.327 36.144C129.343 36.144 128.455 35.934 127.663 35.514C126.883 35.094 126.265 34.494 125.809 33.714C125.365 32.934 125.143 32.022 125.143 30.978C125.143 29.946 125.371 29.04 125.827 28.26C126.283 27.468 126.907 26.862 127.699 26.442C128.491 26.022 129.379 25.812 130.363 25.812C131.347 25.812 132.235 26.022 133.027 26.442C133.819 26.862 134.443 27.468 134.899 28.26C135.355 29.04 135.583 29.946 135.583 30.978C135.583 32.01 135.349 32.922 134.881 33.714C134.425 34.494 133.795 35.094 132.991 35.514C132.199 35.934 131.311 36.144 130.327 36.144ZM130.327 33.48C130.915 33.48 131.413 33.264 131.821 32.832C132.241 32.4 132.451 31.782 132.451 30.978C132.451 30.174 132.247 29.556 131.839 29.124C131.443 28.692 130.951 28.476 130.363 28.476C129.763 28.476 129.265 28.692 128.869 29.124C128.473 29.544 128.275 30.162 128.275 30.978C128.275 31.782 128.467 32.4 128.851 32.832C129.247 33.264 129.739 33.48 130.327 33.48ZM151.634 25.956L148.916 36H145.514L143.93 29.484L142.292 36H138.908L136.172 25.956H139.25L140.672 33.138L142.364 25.956H145.622L147.332 33.102L148.736 25.956H151.634Z" fill="white"/>
</svg>
