<svg width="195" height="98" viewBox="0 0 195 98" fill="none" xmlns="http://www.w3.org/2000/svg">
<rect x="3.12811" y="3" width="191.094" height="95" rx="24" fill="url(#paint0_linear_1_101)"/>
<rect x="0.0292969" width="189.029" height="90" rx="24" fill="white"/>
<path d="M47.2428 39.32V34.352L58.6188 18.08H65.4948V33.992H68.4468V39.32H65.4948V44H59.3388V39.32H47.2428ZM59.7708 24.848L53.7228 33.992H59.7708V24.848ZM74.954 44.288C73.874 44.288 72.986 43.976 72.29 43.352C71.618 42.704 71.282 41.912 71.282 40.976C71.282 40.016 71.618 39.212 72.29 38.564C72.986 37.916 73.874 37.592 74.954 37.592C76.01 37.592 76.874 37.916 77.546 38.564C78.242 39.212 78.59 40.016 78.59 40.976C78.59 41.912 78.242 42.704 77.546 43.352C76.874 43.976 76.01 44.288 74.954 44.288ZM98.3982 22.328L89.3622 44H83.0622L92.2062 23.012H81.0102V17.756H98.3982V22.328Z" fill="#023047"/>
<path d="M48.6679 70.112C47.6333 70.112 46.6893 69.872 45.8359 69.392C44.9826 68.9013 44.3053 68.224 43.8039 67.36C43.3133 66.4853 43.0679 65.504 43.0679 64.416C43.0679 63.328 43.3133 62.352 43.8039 61.488C44.3053 60.6133 44.9826 59.936 45.8359 59.456C46.6893 58.9653 47.6333 58.72 48.6679 58.72C49.7133 58.72 50.6626 58.9653 51.5159 59.456C52.3693 59.936 53.0413 60.608 53.5319 61.472C54.0226 62.336 54.2679 63.3173 54.2679 64.416C54.2679 65.5147 54.0226 66.496 53.5319 67.36C53.0413 68.224 52.3693 68.9013 51.5159 69.392C50.6626 69.872 49.7133 70.112 48.6679 70.112ZM48.6679 68.848C49.4466 68.848 50.1453 68.6667 50.7639 68.304C51.3933 67.9413 51.8839 67.424 52.2359 66.752C52.5986 66.08 52.7799 65.3013 52.7799 64.416C52.7799 63.52 52.5986 62.7413 52.2359 62.08C51.8839 61.408 51.3986 60.8907 50.7799 60.528C50.1613 60.1653 49.4573 59.984 48.6679 59.984C47.8786 59.984 47.1746 60.1653 46.5559 60.528C45.9373 60.8907 45.4466 61.408 45.0839 62.08C44.7319 62.7413 44.5559 63.52 44.5559 64.416C44.5559 65.3013 44.7319 66.08 45.0839 66.752C45.4466 67.424 45.9373 67.9413 46.5559 68.304C47.1853 68.6667 47.8893 68.848 48.6679 68.848ZM59.4541 68.656L62.1741 61.232H63.7261L60.2861 70H58.5901L55.1501 61.232H56.7181L59.4541 68.656ZM73.1588 65.28C73.1588 65.5573 73.1428 65.8507 73.1108 66.16H66.1028C66.1562 67.024 66.4495 67.7013 66.9828 68.192C67.5268 68.672 68.1828 68.912 68.9508 68.912C69.5802 68.912 70.1028 68.768 70.5188 68.48C70.9455 68.1813 71.2442 67.7867 71.4148 67.296H72.9828C72.7482 68.1387 72.2788 68.8267 71.5748 69.36C70.8708 69.8827 69.9962 70.144 68.9508 70.144C68.1188 70.144 67.3722 69.9573 66.7108 69.584C66.0602 69.2107 65.5482 68.6827 65.1748 68C64.8015 67.3067 64.6148 66.5067 64.6148 65.6C64.6148 64.6933 64.7962 63.8987 65.1588 63.216C65.5215 62.5333 66.0282 62.0107 66.6788 61.648C67.3402 61.2747 68.0975 61.088 68.9508 61.088C69.7828 61.088 70.5188 61.2693 71.1588 61.632C71.7988 61.9947 72.2895 62.496 72.6308 63.136C72.9828 63.7653 73.1588 64.48 73.1588 65.28ZM71.6548 64.976C71.6548 64.4213 71.5322 63.9467 71.2868 63.552C71.0415 63.1467 70.7055 62.8427 70.2788 62.64C69.8628 62.4267 69.3988 62.32 68.8868 62.32C68.1508 62.32 67.5215 62.5547 66.9988 63.024C66.4868 63.4933 66.1935 64.144 66.1188 64.976H71.6548ZM76.5367 62.656C76.7927 62.1547 77.1554 61.7653 77.6247 61.488C78.1047 61.2107 78.686 61.072 79.3687 61.072V62.576H78.9847C77.3527 62.576 76.5367 63.4613 76.5367 65.232V70H75.0807V61.232H76.5367V62.656ZM80.5054 65.584C80.5054 64.688 80.6868 63.904 81.0494 63.232C81.4121 62.5493 81.9081 62.0213 82.5374 61.648C83.1774 61.2747 83.8868 61.088 84.6654 61.088C85.4334 61.088 86.1001 61.2533 86.6654 61.584C87.2308 61.9147 87.6521 62.3307 87.9294 62.832V61.232H89.4014V70H87.9294V68.368C87.6414 68.88 87.2094 69.3067 86.6334 69.648C86.0681 69.9787 85.4068 70.144 84.6494 70.144C83.8708 70.144 83.1668 69.952 82.5374 69.568C81.9081 69.184 81.4121 68.6453 81.0494 67.952C80.6868 67.2587 80.5054 66.4693 80.5054 65.584ZM87.9294 65.6C87.9294 64.9387 87.7961 64.3627 87.5294 63.872C87.2628 63.3813 86.9001 63.008 86.4414 62.752C85.9934 62.4853 85.4974 62.352 84.9534 62.352C84.4094 62.352 83.9134 62.48 83.4654 62.736C83.0174 62.992 82.6601 63.3653 82.3934 63.856C82.1268 64.3467 81.9934 64.9227 81.9934 65.584C81.9934 66.256 82.1268 66.8427 82.3934 67.344C82.6601 67.8347 83.0174 68.2133 83.4654 68.48C83.9134 68.736 84.4094 68.864 84.9534 68.864C85.4974 68.864 85.9934 68.736 86.4414 68.48C86.9001 68.2133 87.2628 67.8347 87.5294 67.344C87.7961 66.8427 87.9294 66.2613 87.9294 65.6ZM93.3179 58.16V70H91.8619V58.16H93.3179ZM97.2554 58.16V70H95.7994V58.16H97.2554ZM109.875 70L107.219 65.44H105.459V70H104.003V58.848H107.603C108.445 58.848 109.155 58.992 109.731 59.28C110.317 59.568 110.755 59.9573 111.043 60.448C111.331 60.9387 111.475 61.4987 111.475 62.128C111.475 62.896 111.251 63.5733 110.803 64.16C110.365 64.7467 109.704 65.136 108.819 65.328L111.619 70H109.875ZM105.459 64.272H107.603C108.392 64.272 108.984 64.08 109.379 63.696C109.773 63.3013 109.971 62.7787 109.971 62.128C109.971 61.4667 109.773 60.9547 109.379 60.592C108.995 60.2293 108.403 60.048 107.603 60.048H105.459V64.272ZM113.193 65.584C113.193 64.688 113.374 63.904 113.737 63.232C114.1 62.5493 114.596 62.0213 115.225 61.648C115.865 61.2747 116.574 61.088 117.353 61.088C118.121 61.088 118.788 61.2533 119.353 61.584C119.918 61.9147 120.34 62.3307 120.617 62.832V61.232H122.089V70H120.617V68.368C120.329 68.88 119.897 69.3067 119.321 69.648C118.756 69.9787 118.094 70.144 117.337 70.144C116.558 70.144 115.854 69.952 115.225 69.568C114.596 69.184 114.1 68.6453 113.737 67.952C113.374 67.2587 113.193 66.4693 113.193 65.584ZM120.617 65.6C120.617 64.9387 120.484 64.3627 120.217 63.872C119.95 63.3813 119.588 63.008 119.129 62.752C118.681 62.4853 118.185 62.352 117.641 62.352C117.097 62.352 116.601 62.48 116.153 62.736C115.705 62.992 115.348 63.3653 115.081 63.856C114.814 64.3467 114.681 64.9227 114.681 65.584C114.681 66.256 114.814 66.8427 115.081 67.344C115.348 67.8347 115.705 68.2133 116.153 68.48C116.601 68.736 117.097 68.864 117.641 68.864C118.185 68.864 118.681 68.736 119.129 68.48C119.588 68.2133 119.95 67.8347 120.217 67.344C120.484 66.8427 120.617 66.2613 120.617 65.6ZM126.325 62.432V67.6C126.325 68.0267 126.416 68.3307 126.597 68.512C126.779 68.6827 127.093 68.768 127.541 68.768H128.613V70H127.301C126.491 70 125.883 69.8133 125.477 69.44C125.072 69.0667 124.869 68.4533 124.869 67.6V62.432H123.733V61.232H124.869V59.024H126.325V61.232H128.613V62.432H126.325ZM131.13 59.808C130.852 59.808 130.618 59.712 130.426 59.52C130.234 59.328 130.138 59.0933 130.138 58.816C130.138 58.5387 130.234 58.304 130.426 58.112C130.618 57.92 130.852 57.824 131.13 57.824C131.396 57.824 131.62 57.92 131.802 58.112C131.994 58.304 132.09 58.5387 132.09 58.816C132.09 59.0933 131.994 59.328 131.802 59.52C131.62 59.712 131.396 59.808 131.13 59.808ZM131.834 61.232V70H130.378V61.232H131.834ZM138.587 61.072C139.654 61.072 140.518 61.3973 141.179 62.048C141.84 62.688 142.171 63.616 142.171 64.832V70H140.731V65.04C140.731 64.1653 140.512 63.4987 140.075 63.04C139.638 62.5707 139.04 62.336 138.283 62.336C137.515 62.336 136.902 62.576 136.443 63.056C135.995 63.536 135.771 64.2347 135.771 65.152V70H134.315V61.232H135.771V62.48C136.059 62.032 136.448 61.6853 136.939 61.44C137.44 61.1947 137.99 61.072 138.587 61.072ZM148.165 61.088C148.923 61.088 149.584 61.2533 150.149 61.584C150.725 61.9147 151.152 62.3307 151.429 62.832V61.232H152.901V70.192C152.901 70.992 152.731 71.7013 152.389 72.32C152.048 72.9493 151.557 73.44 150.917 73.792C150.288 74.144 149.552 74.32 148.709 74.32C147.557 74.32 146.597 74.048 145.829 73.504C145.061 72.96 144.608 72.2187 144.469 71.28H145.909C146.069 71.8133 146.4 72.24 146.901 72.56C147.403 72.8907 148.005 73.056 148.709 73.056C149.509 73.056 150.16 72.8053 150.661 72.304C151.173 71.8027 151.429 71.0987 151.429 70.192V68.352C151.141 68.864 150.715 69.2907 150.149 69.632C149.584 69.9733 148.923 70.144 148.165 70.144C147.387 70.144 146.677 69.952 146.037 69.568C145.408 69.184 144.912 68.6453 144.549 67.952C144.187 67.2587 144.005 66.4693 144.005 65.584C144.005 64.688 144.187 63.904 144.549 63.232C144.912 62.5493 145.408 62.0213 146.037 61.648C146.677 61.2747 147.387 61.088 148.165 61.088ZM151.429 65.6C151.429 64.9387 151.296 64.3627 151.029 63.872C150.763 63.3813 150.4 63.008 149.941 62.752C149.493 62.4853 148.997 62.352 148.453 62.352C147.909 62.352 147.413 62.48 146.965 62.736C146.517 62.992 146.16 63.3653 145.893 63.856C145.627 64.3467 145.493 64.9227 145.493 65.584C145.493 66.256 145.627 66.8427 145.893 67.344C146.16 67.8347 146.517 68.2133 146.965 68.48C147.413 68.736 147.909 68.864 148.453 68.864C148.997 68.864 149.493 68.736 149.941 68.48C150.4 68.2133 150.763 67.8347 151.029 67.344C151.296 66.8427 151.429 66.2613 151.429 65.6Z" fill="#023047"/>
<path d="M153.55 26.325H137.288L132.246 11.0625L127.204 26.325H110.942L124.079 35.7438L119.108 50.9375L132.246 41.5187L145.384 50.9375L140.342 35.675L153.55 26.325Z" fill="#FFCE31"/>
<defs>
<linearGradient id="paint0_linear_1_101" x1="98.6753" y1="3" x2="98.6753" y2="98" gradientUnits="userSpaceOnUse">
<stop stop-color="#1828CF"/>
<stop offset="0.624189" stop-color="#717BE1"/>
<stop offset="1" stop-color="#3B448F"/>
</linearGradient>
</defs>
</svg>
