<svg width="221" height="98" viewBox="0 0 221 98" fill="none" xmlns="http://www.w3.org/2000/svg">
<rect x="7.37988" y="1" width="212.786" height="97" rx="24" fill="url(#paint0_linear_1_96)"/>
<rect x="0.149353" width="212.786" height="90" rx="24" fill="white"/>
<path d="M77.3901 23.136C77.4861 20.568 78.3261 18.588 79.9101 17.196C81.4941 15.804 83.6421 15.108 86.3541 15.108C88.1541 15.108 89.6901 15.42 90.9621 16.044C92.2581 16.668 93.2301 17.52 93.8781 18.6C94.5501 19.68 94.8861 20.892 94.8861 22.236C94.8861 23.82 94.4901 25.116 93.6981 26.124C92.9061 27.108 91.9821 27.78 90.9261 28.14V28.284C92.2941 28.74 93.3741 29.496 94.1661 30.552C94.9581 31.608 95.3541 32.964 95.3541 34.62C95.3541 36.108 95.0061 37.428 94.3101 38.58C93.6381 39.708 92.6421 40.596 91.3221 41.244C90.0261 41.892 88.4781 42.216 86.6781 42.216C83.7981 42.216 81.4941 41.508 79.7661 40.092C78.0621 38.676 77.1621 36.54 77.0661 33.684H83.0421C83.0661 34.74 83.3661 35.58 83.9421 36.204C84.5181 36.804 85.3581 37.104 86.4621 37.104C87.3981 37.104 88.1181 36.84 88.6221 36.312C89.1501 35.76 89.4141 35.04 89.4141 34.152C89.4141 33 89.0421 32.172 88.2981 31.668C87.5781 31.14 86.4141 30.876 84.8061 30.876H83.6541V25.872H84.8061C86.0301 25.872 87.0141 25.668 87.7581 25.26C88.5261 24.828 88.9101 24.072 88.9101 22.992C88.9101 22.128 88.6701 21.456 88.1901 20.976C87.7101 20.496 87.0501 20.256 86.2101 20.256C85.2981 20.256 84.6141 20.532 84.1581 21.084C83.7261 21.636 83.4741 22.32 83.4021 23.136H77.3901ZM98.755 37.068C99.571 36.42 99.943 36.12 99.871 36.168C102.223 34.224 104.071 32.628 105.415 31.38C106.783 30.132 107.935 28.824 108.871 27.456C109.807 26.088 110.275 24.756 110.275 23.46C110.275 22.476 110.047 21.708 109.591 21.156C109.135 20.604 108.451 20.328 107.539 20.328C106.627 20.328 105.907 20.676 105.379 21.372C104.875 22.044 104.623 23.004 104.623 24.252H98.683C98.731 22.212 99.163 20.508 99.979 19.14C100.819 17.772 101.911 16.764 103.255 16.116C104.623 15.468 106.135 15.144 107.791 15.144C110.647 15.144 112.795 15.876 114.235 17.34C115.699 18.804 116.431 20.712 116.431 23.064C116.431 25.632 115.555 28.02 113.803 30.228C112.051 32.412 109.819 34.548 107.107 36.636H116.827V41.64H98.755V37.068ZM134.801 42L126.305 30.84V42H120.149V16.728H126.305V27.816L134.729 16.728H141.965L132.173 29.112L142.325 42H134.801Z" fill="#023047"/>
<path d="M39.0044 68.112C38.2684 68.112 37.6071 67.984 37.0204 67.728C36.4444 67.4613 35.9911 67.0987 35.6604 66.64C35.3297 66.1707 35.1591 65.632 35.1484 65.024H36.7004C36.7537 65.5467 36.9671 65.9893 37.3404 66.352C37.7244 66.704 38.2791 66.88 39.0044 66.88C39.6977 66.88 40.2417 66.7093 40.6364 66.368C41.0417 66.016 41.2444 65.568 41.2444 65.024C41.2444 64.5973 41.1271 64.2507 40.8924 63.984C40.6577 63.7173 40.3644 63.5147 40.0124 63.376C39.6604 63.2373 39.1857 63.088 38.5884 62.928C37.8524 62.736 37.2604 62.544 36.8124 62.352C36.3751 62.16 35.9964 61.8613 35.6764 61.456C35.3671 61.04 35.2124 60.4853 35.2124 59.792C35.2124 59.184 35.3671 58.6453 35.6764 58.176C35.9857 57.7067 36.4177 57.344 36.9724 57.088C37.5377 56.832 38.1831 56.704 38.9084 56.704C39.9537 56.704 40.8071 56.9653 41.4684 57.488C42.1404 58.0107 42.5191 58.704 42.6044 59.568H41.0044C40.9511 59.1413 40.7271 58.768 40.3324 58.448C39.9377 58.1173 39.4151 57.952 38.7644 57.952C38.1564 57.952 37.6604 58.112 37.2764 58.432C36.8924 58.7413 36.7004 59.1787 36.7004 59.744C36.7004 60.1493 36.8124 60.48 37.0364 60.736C37.2711 60.992 37.5537 61.1893 37.8844 61.328C38.2257 61.456 38.7004 61.6053 39.3084 61.776C40.0444 61.9787 40.6364 62.1813 41.0844 62.384C41.5324 62.576 41.9164 62.88 42.2364 63.296C42.5564 63.7013 42.7164 64.256 42.7164 64.96C42.7164 65.504 42.5724 66.016 42.2844 66.496C41.9964 66.976 41.5697 67.3653 41.0044 67.664C40.4391 67.9627 39.7724 68.112 39.0044 68.112ZM46.635 60.432V65.6C46.635 66.0267 46.7257 66.3307 46.907 66.512C47.0883 66.6827 47.403 66.768 47.851 66.768H48.923V68H47.611C46.8003 68 46.1923 67.8133 45.787 67.44C45.3817 67.0667 45.179 66.4533 45.179 65.6V60.432H44.043V59.232H45.179V57.024H46.635V59.232H48.923V60.432H46.635ZM58.4631 59.232V68H57.0071V66.704C56.7298 67.152 56.3405 67.504 55.8391 67.76C55.3485 68.0053 54.8045 68.128 54.2071 68.128C53.5245 68.128 52.9111 67.9893 52.3671 67.712C51.8231 67.424 51.3911 66.9973 51.0711 66.432C50.7618 65.8667 50.6071 65.1787 50.6071 64.368V59.232H52.0471V64.176C52.0471 65.04 52.2658 65.7067 52.7031 66.176C53.1405 66.6347 53.7378 66.864 54.4951 66.864C55.2738 66.864 55.8871 66.624 56.3351 66.144C56.7831 65.664 57.0071 64.9653 57.0071 64.048V59.232H58.4631ZM60.3775 63.584C60.3775 62.688 60.5588 61.904 60.9215 61.232C61.2842 60.5493 61.7802 60.0213 62.4095 59.648C63.0495 59.2747 63.7642 59.088 64.5535 59.088C65.2362 59.088 65.8708 59.248 66.4575 59.568C67.0442 59.8773 67.4922 60.288 67.8015 60.8V56.16H69.2735V68H67.8015V66.352C67.5135 66.8747 67.0868 67.3067 66.5215 67.648C65.9562 67.9787 65.2948 68.144 64.5375 68.144C63.7588 68.144 63.0495 67.952 62.4095 67.568C61.7802 67.184 61.2842 66.6453 60.9215 65.952C60.5588 65.2587 60.3775 64.4693 60.3775 63.584ZM67.8015 63.6C67.8015 62.9387 67.6682 62.3627 67.4015 61.872C67.1348 61.3813 66.7722 61.008 66.3135 60.752C65.8655 60.4853 65.3695 60.352 64.8255 60.352C64.2815 60.352 63.7855 60.48 63.3375 60.736C62.8895 60.992 62.5322 61.3653 62.2655 61.856C61.9988 62.3467 61.8655 62.9227 61.8655 63.584C61.8655 64.256 61.9988 64.8427 62.2655 65.344C62.5322 65.8347 62.8895 66.2133 63.3375 66.48C63.7855 66.736 64.2815 66.864 64.8255 66.864C65.3695 66.864 65.8655 66.736 66.3135 66.48C66.7722 66.2133 67.1348 65.8347 67.4015 65.344C67.6682 64.8427 67.8015 64.2613 67.8015 63.6ZM79.734 63.28C79.734 63.5573 79.718 63.8507 79.686 64.16H72.678C72.7313 65.024 73.0247 65.7013 73.558 66.192C74.102 66.672 74.758 66.912 75.526 66.912C76.1553 66.912 76.678 66.768 77.094 66.48C77.5207 66.1813 77.8193 65.7867 77.99 65.296H79.558C79.3233 66.1387 78.854 66.8267 78.15 67.36C77.446 67.8827 76.5713 68.144 75.526 68.144C74.694 68.144 73.9473 67.9573 73.286 67.584C72.6353 67.2107 72.1233 66.6827 71.75 66C71.3767 65.3067 71.19 64.5067 71.19 63.6C71.19 62.6933 71.3713 61.8987 71.734 61.216C72.0967 60.5333 72.6033 60.0107 73.254 59.648C73.9153 59.2747 74.6727 59.088 75.526 59.088C76.358 59.088 77.094 59.2693 77.734 59.632C78.374 59.9947 78.8647 60.496 79.206 61.136C79.558 61.7653 79.734 62.48 79.734 63.28ZM78.23 62.976C78.23 62.4213 78.1073 61.9467 77.862 61.552C77.6167 61.1467 77.2807 60.8427 76.854 60.64C76.438 60.4267 75.974 60.32 75.462 60.32C74.726 60.32 74.0967 60.5547 73.574 61.024C73.062 61.4933 72.7687 62.144 72.694 62.976H78.23ZM85.9279 59.072C86.9946 59.072 87.8586 59.3973 88.5199 60.048C89.1812 60.688 89.5119 61.616 89.5119 62.832V68H88.0719V63.04C88.0719 62.1653 87.8532 61.4987 87.4159 61.04C86.9786 60.5707 86.3812 60.336 85.6239 60.336C84.8559 60.336 84.2426 60.576 83.7839 61.056C83.3359 61.536 83.1119 62.2347 83.1119 63.152V68H81.6559V59.232H83.1119V60.48C83.3999 60.032 83.7892 59.6853 84.2799 59.44C84.7812 59.1947 85.3306 59.072 85.9279 59.072ZM93.6663 60.432V65.6C93.6663 66.0267 93.7569 66.3307 93.9383 66.512C94.1196 66.6827 94.4343 66.768 94.8823 66.768H95.9543V68H94.6423C93.8316 68 93.2236 67.8133 92.8183 67.44C92.4129 67.0667 92.2103 66.4533 92.2103 65.6V60.432H91.0743V59.232H92.2103V57.024H93.6663V59.232H95.9543V60.432H93.6663ZM100.822 68.144C100.15 68.144 99.5477 68.032 99.0144 67.808C98.4811 67.5733 98.0597 67.2533 97.7504 66.848C97.4411 66.432 97.2704 65.9573 97.2384 65.424H98.7424C98.7851 65.8613 98.9877 66.2187 99.3504 66.496C99.7237 66.7733 100.209 66.912 100.806 66.912C101.361 66.912 101.798 66.7893 102.118 66.544C102.438 66.2987 102.598 65.9893 102.598 65.616C102.598 65.232 102.428 64.9493 102.086 64.768C101.745 64.576 101.217 64.3893 100.502 64.208C99.8517 64.0373 99.3184 63.8667 98.9024 63.696C98.4971 63.5147 98.1451 63.2533 97.8464 62.912C97.5584 62.56 97.4144 62.1013 97.4144 61.536C97.4144 61.088 97.5477 60.6773 97.8144 60.304C98.0811 59.9307 98.4597 59.6373 98.9504 59.424C99.4411 59.2 100.001 59.088 100.63 59.088C101.601 59.088 102.385 59.3333 102.982 59.824C103.58 60.3147 103.9 60.9867 103.942 61.84H102.486C102.454 61.3813 102.268 61.0133 101.926 60.736C101.596 60.4587 101.148 60.32 100.582 60.32C100.06 60.32 99.6437 60.432 99.3344 60.656C99.0251 60.88 98.8704 61.1733 98.8704 61.536C98.8704 61.824 98.9611 62.064 99.1424 62.256C99.3344 62.4373 99.5691 62.5867 99.8464 62.704C100.134 62.8107 100.529 62.9333 101.03 63.072C101.66 63.2427 102.172 63.4133 102.566 63.584C102.961 63.744 103.297 63.9893 103.574 64.32C103.862 64.6507 104.012 65.0827 104.022 65.616C104.022 66.096 103.889 66.528 103.622 66.912C103.356 67.296 102.977 67.6 102.486 67.824C102.006 68.0373 101.452 68.144 100.822 68.144ZM111.799 58.032V61.76H115.863V62.96H111.799V66.8H116.343V68H110.343V56.832H116.343V58.032H111.799ZM122.819 59.072C123.885 59.072 124.749 59.3973 125.411 60.048C126.072 60.688 126.403 61.616 126.403 62.832V68H124.963V63.04C124.963 62.1653 124.744 61.4987 124.307 61.04C123.869 60.5707 123.272 60.336 122.515 60.336C121.747 60.336 121.133 60.576 120.675 61.056C120.227 61.536 120.003 62.2347 120.003 63.152V68H118.547V59.232H120.003V60.48C120.291 60.032 120.68 59.6853 121.171 59.44C121.672 59.1947 122.221 59.072 122.819 59.072ZM130.237 60.656C130.493 60.1547 130.856 59.7653 131.325 59.488C131.805 59.2107 132.386 59.072 133.069 59.072V60.576H132.685C131.053 60.576 130.237 61.4613 130.237 63.232V68H128.781V59.232H130.237V60.656ZM138.574 68.144C137.752 68.144 137.006 67.9573 136.334 67.584C135.672 67.2107 135.15 66.6827 134.766 66C134.392 65.3067 134.206 64.5067 134.206 63.6C134.206 62.704 134.398 61.9147 134.782 61.232C135.176 60.5387 135.71 60.0107 136.382 59.648C137.054 59.2747 137.806 59.088 138.638 59.088C139.47 59.088 140.222 59.2747 140.894 59.648C141.566 60.0107 142.094 60.5333 142.478 61.216C142.872 61.8987 143.07 62.6933 143.07 63.6C143.07 64.5067 142.867 65.3067 142.462 66C142.067 66.6827 141.528 67.2107 140.846 67.584C140.163 67.9573 139.406 68.144 138.574 68.144ZM138.574 66.864C139.096 66.864 139.587 66.7413 140.046 66.496C140.504 66.2507 140.872 65.8827 141.15 65.392C141.438 64.9013 141.582 64.304 141.582 63.6C141.582 62.896 141.443 62.2987 141.166 61.808C140.888 61.3173 140.526 60.9547 140.078 60.72C139.63 60.4747 139.144 60.352 138.622 60.352C138.088 60.352 137.598 60.4747 137.15 60.72C136.712 60.9547 136.36 61.3173 136.094 61.808C135.827 62.2987 135.694 62.896 135.694 63.6C135.694 64.3147 135.822 64.9173 136.078 65.408C136.344 65.8987 136.696 66.2667 137.134 66.512C137.571 66.7467 138.051 66.864 138.574 66.864ZM146.44 56.16V68H144.984V56.16H146.44ZM150.378 56.16V68H148.922V56.16H150.378ZM160.859 63.28C160.859 63.5573 160.843 63.8507 160.811 64.16H153.803C153.856 65.024 154.15 65.7013 154.683 66.192C155.227 66.672 155.883 66.912 156.651 66.912C157.28 66.912 157.803 66.768 158.219 66.48C158.646 66.1813 158.944 65.7867 159.115 65.296H160.683C160.448 66.1387 159.979 66.8267 159.275 67.36C158.571 67.8827 157.696 68.144 156.651 68.144C155.819 68.144 155.072 67.9573 154.411 67.584C153.76 67.2107 153.248 66.6827 152.875 66C152.502 65.3067 152.315 64.5067 152.315 63.6C152.315 62.6933 152.496 61.8987 152.859 61.216C153.222 60.5333 153.728 60.0107 154.379 59.648C155.04 59.2747 155.798 59.088 156.651 59.088C157.483 59.088 158.219 59.2693 158.859 59.632C159.499 59.9947 159.99 60.496 160.331 61.136C160.683 61.7653 160.859 62.48 160.859 63.28ZM159.355 62.976C159.355 62.4213 159.232 61.9467 158.987 61.552C158.742 61.1467 158.406 60.8427 157.979 60.64C157.563 60.4267 157.099 60.32 156.587 60.32C155.851 60.32 155.222 60.5547 154.699 61.024C154.187 61.4933 153.894 62.144 153.819 62.976H159.355ZM162.237 63.584C162.237 62.688 162.418 61.904 162.781 61.232C163.144 60.5493 163.64 60.0213 164.269 59.648C164.909 59.2747 165.624 59.088 166.413 59.088C167.096 59.088 167.73 59.248 168.317 59.568C168.904 59.8773 169.352 60.288 169.661 60.8V56.16H171.133V68H169.661V66.352C169.373 66.8747 168.946 67.3067 168.381 67.648C167.816 67.9787 167.154 68.144 166.397 68.144C165.618 68.144 164.909 67.952 164.269 67.568C163.64 67.184 163.144 66.6453 162.781 65.952C162.418 65.2587 162.237 64.4693 162.237 63.584ZM169.661 63.6C169.661 62.9387 169.528 62.3627 169.261 61.872C168.994 61.3813 168.632 61.008 168.173 60.752C167.725 60.4853 167.229 60.352 166.685 60.352C166.141 60.352 165.645 60.48 165.197 60.736C164.749 60.992 164.392 61.3653 164.125 61.856C163.858 62.3467 163.725 62.9227 163.725 63.584C163.725 64.256 163.858 64.8427 164.125 65.344C164.392 65.8347 164.749 66.2133 165.197 66.48C165.645 66.736 166.141 66.864 166.685 66.864C167.229 66.864 167.725 66.736 168.173 66.48C168.632 66.2133 168.994 65.8347 169.261 65.344C169.528 64.8427 169.661 64.2613 169.661 63.6Z" fill="#023047"/>
<defs>
<linearGradient id="paint0_linear_1_96" x1="113.773" y1="1" x2="113.773" y2="98" gradientUnits="userSpaceOnUse">
<stop stop-color="#1828CF"/>
<stop offset="0.624189" stop-color="#717BE1"/>
<stop offset="1" stop-color="#3B448F"/>
</linearGradient>
</defs>
</svg>
