<svg width="156" height="59" viewBox="0 0 156 59" fill="none" xmlns="http://www.w3.org/2000/svg">
<rect x="0.159668" width="155" height="59" rx="24" fill="#023047"/>
<path d="M36.3537 25.83V28.386H40.4757V30.762H36.3537V33.534H41.0157V36H33.2757V23.364H41.0157V25.83H36.3537ZM49.1339 25.848C50.3099 25.848 51.2459 26.232 51.9419 27C52.6499 27.756 53.0039 28.8 53.0039 30.132V36H49.9439V30.546C49.9439 29.874 49.7699 29.352 49.4219 28.98C49.0739 28.608 48.6059 28.422 48.0179 28.422C47.4299 28.422 46.9619 28.608 46.6139 28.98C46.2659 29.352 46.0919 29.874 46.0919 30.546V36H43.0139V25.956H46.0919V27.288C46.4039 26.844 46.8239 26.496 47.3519 26.244C47.8799 25.98 48.4739 25.848 49.1339 25.848ZM58.2209 27.63C58.5809 27.078 59.0309 26.646 59.5709 26.334C60.1109 26.01 60.7109 25.848 61.3709 25.848V29.106H60.5249C59.7569 29.106 59.1809 29.274 58.7969 29.61C58.4129 29.934 58.2209 30.51 58.2209 31.338V36H55.1429V25.956H58.2209V27.63ZM67.4141 36.144C66.4301 36.144 65.5421 35.934 64.7501 35.514C63.9701 35.094 63.3521 34.494 62.8961 33.714C62.4521 32.934 62.2301 32.022 62.2301 30.978C62.2301 29.946 62.4581 29.04 62.9141 28.26C63.3701 27.468 63.9941 26.862 64.7861 26.442C65.5781 26.022 66.4661 25.812 67.4501 25.812C68.4341 25.812 69.3221 26.022 70.1141 26.442C70.9061 26.862 71.5301 27.468 71.9861 28.26C72.4421 29.04 72.6701 29.946 72.6701 30.978C72.6701 32.01 72.4361 32.922 71.9681 33.714C71.5121 34.494 70.8821 35.094 70.0781 35.514C69.2861 35.934 68.3981 36.144 67.4141 36.144ZM67.4141 33.48C68.0021 33.48 68.5001 33.264 68.9081 32.832C69.3281 32.4 69.5381 31.782 69.5381 30.978C69.5381 30.174 69.3341 29.556 68.9261 29.124C68.5301 28.692 68.0381 28.476 67.4501 28.476C66.8501 28.476 66.3521 28.692 65.9561 29.124C65.5601 29.544 65.3621 30.162 65.3621 30.978C65.3621 31.782 65.5541 32.4 65.9381 32.832C66.3341 33.264 66.8261 33.48 67.4141 33.48ZM77.381 22.68V36H74.303V22.68H77.381ZM94.7301 36H91.6521L86.5041 28.206V36H83.4261V23.364H86.5041L91.6521 31.194V23.364H94.7301V36ZM101.533 36.144C100.549 36.144 99.6612 35.934 98.8692 35.514C98.0892 35.094 97.4712 34.494 97.0152 33.714C96.5712 32.934 96.3492 32.022 96.3492 30.978C96.3492 29.946 96.5772 29.04 97.0332 28.26C97.4892 27.468 98.1132 26.862 98.9052 26.442C99.6972 26.022 100.585 25.812 101.569 25.812C102.553 25.812 103.441 26.022 104.233 26.442C105.025 26.862 105.649 27.468 106.105 28.26C106.561 29.04 106.789 29.946 106.789 30.978C106.789 32.01 106.555 32.922 106.087 33.714C105.631 34.494 105.001 35.094 104.197 35.514C103.405 35.934 102.517 36.144 101.533 36.144ZM101.533 33.48C102.121 33.48 102.619 33.264 103.027 32.832C103.447 32.4 103.657 31.782 103.657 30.978C103.657 30.174 103.453 29.556 103.045 29.124C102.649 28.692 102.157 28.476 101.569 28.476C100.969 28.476 100.471 28.692 100.075 29.124C99.6792 29.544 99.4812 30.162 99.4812 30.978C99.4812 31.782 99.6732 32.4 100.057 32.832C100.453 33.264 100.945 33.48 101.533 33.48ZM122.84 25.956L120.122 36H116.72L115.136 29.484L113.498 36H110.114L107.378 25.956H110.456L111.878 33.138L113.57 25.956H116.828L118.538 33.102L119.942 25.956H122.84Z" fill="white"/>
</svg>
